<svg id="visual" viewBox="0 0 900 300" width="900" height="900" xmlns="http://www.w3.org/2000/svg" xmlns:xlink="http://www.w3.org/1999/xlink" version="1.1"><rect x="0" y="0" width="900" height="600" fill="#f7f7f7"></rect><path d="M0 523L8.3 521C16.7 519 33.3 515 50 519.2C66.7 523.3 83.3 535.7 100 542C116.7 548.3 133.3 548.7 150 544C166.7 539.3 183.3 529.7 200 531.7C216.7 533.7 233.3 547.3 250 549.2C266.7 551 283.3 541 300 539C316.7 537 333.3 543 350 546.3C366.7 549.7 383.3 550.3 400 546C416.7 541.7 433.3 532.3 450 527C466.7 521.7 483.3 520.3 500 528.2C516.7 536 533.3 553 550 557.7C566.7 562.3 583.3 554.7 600 543.3C616.7 532 633.3 517 650 514.5C666.7 512 683.3 522 700 525.5C716.7 529 733.3 526 750 529.7C766.7 533.3 783.3 543.7 800 542.5C816.7 541.3 833.3 528.7 850 520.8C866.7 513 883.3 510 891.7 508.5L900 507L900 601L891.7 601C883.3 601 866.7 601 850 601C833.3 601 816.7 601 800 601C783.3 601 766.7 601 750 601C733.3 601 716.7 601 700 601C683.3 601 666.7 601 650 601C633.3 601 616.7 601 600 601C583.3 601 566.7 601 550 601C533.3 601 516.7 601 500 601C483.3 601 466.7 601 450 601C433.3 601 416.7 601 400 601C383.3 601 366.7 601 350 601C333.3 601 316.7 601 300 601C283.3 601 266.7 601 250 601C233.3 601 216.7 601 200 601C183.3 601 166.7 601 150 601C133.3 601 116.7 601 100 601C83.3 601 66.7 601 50 601C33.3 601 16.7 601 8.3 601L0 601Z" fill="#cde6f9"></path><path d="M0 567L8.3 562C16.7 557 33.3 547 50 546.3C66.7 545.7 83.3 554.3 100 558.5C116.7 562.7 133.3 562.3 150 562C166.7 561.7 183.3 561.3 200 561.2C216.7 561 233.3 561 250 555.8C266.7 550.7 283.3 540.3 300 538.5C316.7 536.7 333.3 543.3 350 548.8C366.7 554.3 383.3 558.7 400 557.5C416.7 556.3 433.3 549.7 450 551.8C466.7 554 483.3 565 500 563.3C516.7 561.7 533.3 547.3 550 545.8C566.7 544.3 583.3 555.7 600 555.3C616.7 555 633.3 543 650 541.3C666.7 539.7 683.3 548.3 700 550C716.7 551.7 733.3 546.3 750 543.2C766.7 540 783.3 539 800 545.2C816.7 551.3 833.3 564.7 850 568.5C866.7 572.3 883.3 566.7 891.7 563.8L900 561L900 601L891.7 601C883.3 601 866.7 601 850 601C833.3 601 816.7 601 800 601C783.3 601 766.7 601 750 601C733.3 601 716.7 601 700 601C683.3 601 666.7 601 650 601C633.3 601 616.7 601 600 601C583.3 601 566.7 601 550 601C533.3 601 516.7 601 500 601C483.3 601 466.7 601 450 601C433.3 601 416.7 601 400 601C383.3 601 366.7 601 350 601C333.3 601 316.7 601 300 601C283.3 601 266.7 601 250 601C233.3 601 216.7 601 200 601C183.3 601 166.7 601 150 601C133.3 601 116.7 601 100 601C83.3 601 66.7 601 50 601C33.3 601 16.7 601 8.3 601L0 601Z" fill="#97cffc"></path><path d="M0 570L8.3 572C16.7 574 33.3 578 50 578.2C66.7 578.3 83.3 574.7 100 571C116.7 567.3 133.3 563.7 150 561.7C166.7 559.7 183.3 559.3 200 560C216.7 560.7 233.3 562.3 250 562.3C266.7 562.3 283.3 560.7 300 560.5C316.7 560.3 333.3 561.7 350 565.7C366.7 569.7 383.3 576.3 400 575.7C416.7 575 433.3 567 450 566.7C466.7 566.3 483.3 573.7 500 573C516.7 572.3 533.3 563.7 550 559.7C566.7 555.7 583.3 556.3 600 561.3C616.7 566.3 633.3 575.7 650 576.2C666.7 576.7 683.3 568.3 700 563.7C716.7 559 733.3 558 750 557.2C766.7 556.3 783.3 555.7 800 560.3C816.7 565 833.3 575 850 577.8C866.7 580.7 883.3 576.3 891.7 574.2L900 572L900 601L891.7 601C883.3 601 866.7 601 850 601C833.3 601 816.7 601 800 601C783.3 601 766.7 601 750 601C733.3 601 716.7 601 700 601C683.3 601 666.7 601 650 601C633.3 601 616.7 601 600 601C583.3 601 566.7 601 550 601C533.3 601 516.7 601 500 601C483.3 601 466.7 601 450 601C433.3 601 416.7 601 400 601C383.3 601 366.7 601 350 601C333.3 601 316.7 601 300 601C283.3 601 266.7 601 250 601C233.3 601 216.7 601 200 601C183.3 601 166.7 601 150 601C133.3 601 116.7 601 100 601C83.3 601 66.7 601 50 601C33.3 601 16.7 601 8.3 601L0 601Z" fill="#59b6ff"></path></svg>
