<svg id="visual" viewBox="0 0 900 600" width="900" height="600" xmlns="http://www.w3.org/2000/svg" xmlns:xlink="http://www.w3.org/1999/xlink" version="1.1"><rect x="0" y="0" width="900" height="600" fill="#f7f7f7"></rect><path d="M0 158L13.7 166.7C27.3 175.3 54.7 192.7 82 209.2C109.3 225.7 136.7 241.3 163.8 246.2C191 251 218 245 245.2 242.3C272.3 239.7 299.7 240.3 327 236.7C354.3 233 381.7 225 409 212.3C436.3 199.7 463.7 182.3 491 177.7C518.3 173 545.7 181 573 190.3C600.3 199.7 627.7 210.3 654.8 215.7C682 221 709 221 736.2 235C763.3 249 790.7 277 818 292C845.3 307 872.7 309 886.3 310L900 311L900 601L886.3 601C872.7 601 845.3 601 818 601C790.7 601 763.3 601 736.2 601C709 601 682 601 654.8 601C627.7 601 600.3 601 573 601C545.7 601 518.3 601 491 601C463.7 601 436.3 601 409 601C381.7 601 354.3 601 327 601C299.7 601 272.3 601 245.2 601C218 601 191 601 163.8 601C136.7 601 109.3 601 82 601C54.7 601 27.3 601 13.7 601L0 601Z" fill="#59b6ff"></path><path d="M0 346L13.7 335.5C27.3 325 54.7 304 82 303.5C109.3 303 136.7 323 163.8 312.5C191 302 218 261 245.2 252C272.3 243 299.7 266 327 270.7C354.3 275.3 381.7 261.7 409 249.5C436.3 237.3 463.7 226.7 491 221C518.3 215.3 545.7 214.7 573 219.8C600.3 225 627.7 236 654.8 252.2C682 268.3 709 289.7 736.2 284.7C763.3 279.7 790.7 248.3 818 243.2C845.3 238 872.7 259 886.3 269.5L900 280L900 601L886.3 601C872.7 601 845.3 601 818 601C790.7 601 763.3 601 736.2 601C709 601 682 601 654.8 601C627.7 601 600.3 601 573 601C545.7 601 518.3 601 491 601C463.7 601 436.3 601 409 601C381.7 601 354.3 601 327 601C299.7 601 272.3 601 245.2 601C218 601 191 601 163.8 601C136.7 601 109.3 601 82 601C54.7 601 27.3 601 13.7 601L0 601Z" fill="#77c3fe"></path><path d="M0 371L13.7 373.2C27.3 375.3 54.7 379.7 82 378.5C109.3 377.3 136.7 370.7 163.8 369.3C191 368 218 372 245.2 376C272.3 380 299.7 384 327 365.5C354.3 347 381.7 306 409 295.5C436.3 285 463.7 305 491 317.3C518.3 329.7 545.7 334.3 573 340.2C600.3 346 627.7 353 654.8 340.2C682 327.3 709 294.7 736.2 284.8C763.3 275 790.7 288 818 292.7C845.3 297.3 872.7 293.7 886.3 291.8L900 290L900 601L886.3 601C872.7 601 845.3 601 818 601C790.7 601 763.3 601 736.2 601C709 601 682 601 654.8 601C627.7 601 600.3 601 573 601C545.7 601 518.3 601 491 601C463.7 601 436.3 601 409 601C381.7 601 354.3 601 327 601C299.7 601 272.3 601 245.2 601C218 601 191 601 163.8 601C136.7 601 109.3 601 82 601C54.7 601 27.3 601 13.7 601L0 601Z" fill="#93cefd"></path><path d="M0 377L13.7 387.3C27.3 397.7 54.7 418.3 82 427.8C109.3 437.3 136.7 435.7 163.8 423.2C191 410.7 218 387.3 245.2 374.3C272.3 361.3 299.7 358.7 327 365.5C354.3 372.3 381.7 388.7 409 385.7C436.3 382.7 463.7 360.3 491 354.2C518.3 348 545.7 358 573 363.3C600.3 368.7 627.7 369.3 654.8 378.8C682 388.3 709 406.7 736.2 417.3C763.3 428 790.7 431 818 422.2C845.3 413.3 872.7 392.7 886.3 382.3L900 372L900 601L886.3 601C872.7 601 845.3 601 818 601C790.7 601 763.3 601 736.2 601C709 601 682 601 654.8 601C627.7 601 600.3 601 573 601C545.7 601 518.3 601 491 601C463.7 601 436.3 601 409 601C381.7 601 354.3 601 327 601C299.7 601 272.3 601 245.2 601C218 601 191 601 163.8 601C136.7 601 109.3 601 82 601C54.7 601 27.3 601 13.7 601L0 601Z" fill="#9ed3fc"></path><path d="M0 441L13.7 443.7C27.3 446.3 54.7 451.7 82 456.5C109.3 461.3 136.7 465.7 163.8 464.5C191 463.3 218 456.7 245.2 444.2C272.3 431.7 299.7 413.3 327 417.8C354.3 422.3 381.7 449.7 409 447.2C436.3 444.7 463.7 412.3 491 398.3C518.3 384.3 545.7 388.7 573 404.3C600.3 420 627.7 447 654.8 452.5C682 458 709 442 736.2 439.7C763.3 437.3 790.7 448.7 818 447.7C845.3 446.7 872.7 433.3 886.3 426.7L900 420L900 601L886.3 601C872.7 601 845.3 601 818 601C790.7 601 763.3 601 736.2 601C709 601 682 601 654.8 601C627.7 601 600.3 601 573 601C545.7 601 518.3 601 491 601C463.7 601 436.3 601 409 601C381.7 601 354.3 601 327 601C299.7 601 272.3 601 245.2 601C218 601 191 601 163.8 601C136.7 601 109.3 601 82 601C54.7 601 27.3 601 13.7 601L0 601Z" fill="#93cefd"></path><path d="M0 459L13.7 462C27.3 465 54.7 471 82 473.7C109.3 476.3 136.7 475.7 163.8 478.7C191 481.7 218 488.3 245.2 493.2C272.3 498 299.7 501 327 504.3C354.3 507.7 381.7 511.3 409 500.8C436.3 490.3 463.7 465.7 491 457.5C518.3 449.3 545.7 457.7 573 465.5C600.3 473.3 627.7 480.7 654.8 481.8C682 483 709 478 736.2 472.8C763.3 467.7 790.7 462.3 818 462.2C845.3 462 872.7 467 886.3 469.5L900 472L900 601L886.3 601C872.7 601 845.3 601 818 601C790.7 601 763.3 601 736.2 601C709 601 682 601 654.8 601C627.7 601 600.3 601 573 601C545.7 601 518.3 601 491 601C463.7 601 436.3 601 409 601C381.7 601 354.3 601 327 601C299.7 601 272.3 601 245.2 601C218 601 191 601 163.8 601C136.7 601 109.3 601 82 601C54.7 601 27.3 601 13.7 601L0 601Z" fill="#77c3fe"></path><path d="M0 519L13.7 521.5C27.3 524 54.7 529 82 530.2C109.3 531.3 136.7 528.7 163.8 523.7C191 518.7 218 511.3 245.2 513.3C272.3 515.3 299.7 526.7 327 526.3C354.3 526 381.7 514 409 509.8C436.3 505.7 463.7 509.3 491 514.8C518.3 520.3 545.7 527.7 573 529.3C600.3 531 627.7 527 654.8 524.7C682 522.3 709 521.7 736.2 517.7C763.3 513.7 790.7 506.3 818 510.7C845.3 515 872.7 531 886.3 539L900 547L900 601L886.3 601C872.7 601 845.3 601 818 601C790.7 601 763.3 601 736.2 601C709 601 682 601 654.8 601C627.7 601 600.3 601 573 601C545.7 601 518.3 601 491 601C463.7 601 436.3 601 409 601C381.7 601 354.3 601 327 601C299.7 601 272.3 601 245.2 601C218 601 191 601 163.8 601C136.7 601 109.3 601 82 601C54.7 601 27.3 601 13.7 601L0 601Z" fill="#59b6ff"></path></svg>