<svg width="580" height="400" xmlns="http://www.w3.org/2000/svg" stroke="null" style="vector-effect: non-scaling-stroke;">
 <!-- Created with SVG Editor - http://github.com/mzalive/SVG Editor/ -->

 <g stroke="null">
  <title stroke="null">background</title>
  <rect stroke="null" fill="#fff" id="canvas_background" height="402" width="582" y="-1" x="-1"/>
  <g stroke="null" style="vector-effect: non-scaling-stroke;" display="none" overflow="visible" y="0" x="0" height="100%" width="100%" id="canvasGrid">
   <rect stroke="null" fill="url(#gridpattern)" stroke-width="0" y="0" x="0" height="100%" width="100%"/>
  </g>
 </g>
 <g stroke="null">
  <title stroke="null">Layer 1</title>
  <style stroke="null" style="vector-effect: non-scaling-stroke;" transform="matrix(0.00005964892801912925,0,0,0.00005964892801912925,0,0) " type="text/css">
   <![CDATA[
    .str0 {stroke:#0E8BC2;stroke-width:20;stroke-miterlimit:22.9256}
    .str1 {stroke:#0E8BC2;stroke-width:7.62;stroke-miterlimit:22.9256}
    .fil0 {fill:#0E8BC2;fill-rule:nonzero}
    .fil3 {fill:#0E8BC2;fill-rule:nonzero}
    .fil1 {fill:#0655A0;fill-rule:nonzero}
    .fil2 {fill:#0655A0;fill-rule:nonzero}
   ]]>
  </style>
  <style transform="matrix(0.00008588977817677954,0,0,0.00008588977817677954,0,0) " type="text/css">
   <![CDATA[
    .str0 {stroke:#0E8BC2;stroke-width:20;stroke-miterlimit:22.9256}
    .str1 {stroke:#0E8BC2;stroke-width:7.62;stroke-miterlimit:22.9256}
    .fil0 {fill:#0E8BC2;fill-rule:nonzero}
    .fil3 {fill:#0E8BC2;fill-rule:nonzero}
    .fil1 {fill:#0655A0;fill-rule:nonzero}
    .fil2 {fill:#0655A0;fill-rule:nonzero}
   ]]>
  </style>
  <g stroke="null" id="svg_31">
   <polygon stroke="null" id="svg_20" points="692.4050903320312,288.2887191772461 692.4050903320312,26.467529296875 623.7513427734375,26.467529296875 623.7513427734375,372.28663635253906 705.9876098632812,372.28663635253906 848.6263427734375,110.44224548339844 848.6263427734375,372.28663635253906 917.3267211914062,372.28663635253906 917.3267211914062,26.467529296875 835.0902709960938,26.467529296875 " class="fil0"/>
   <polygon stroke="null" id="svg_21" points="456.82177734375,372.28663635253906 555.0510864257812,372.28663635253906 555.0510864257812,129.2165870666504 554.4948120117188,75.83714294433594 " class="fil0"/>
   <polygon stroke="null" id="svg_22" points="293.2762145996094,129.2165870666504 293.2762145996094,372.28663635253906 391.5518798828125,372.28663635253906 293.7861633300781,75.83714294433594 " class="fil0"/>
   <polygon stroke="null" id="svg_23" points="155.92208862304688,320.4137268066406 224.62234497070312,372.28663635253906 224.62234497070312,26.467529296875 155.92208862304688,26.467529296875 " class="fil1"/>
   <polygon stroke="null" id="svg_24" points="340.6988830566406,26.467529296875 423.44512939453125,288.7754669189453 424.88214111328125,288.7754669189453 507.6748046875,26.467529296875 " class="fil0"/>
   <path stroke="null" id="svg_25" d="m1085.209069,26.459619l-100.044908,0l0,345.834796l68.640132,0l0,-129.932348l43.989647,0c86.614607,0 117.570575,-62.249846 117.570575,-107.711164c0,-21.769768 -7.257894,-108.191284 -130.154143,-108.191284l-0.001305,0zm0.001305,161.562832l0,0l-31.404775,0l0,-107.225826l31.404775,0c39.720759,0 57.589555,23.19447 57.589555,51.882917c0,26.150858 -15.986154,55.342909 -57.589555,55.342909z" class="fil0"/>
   <polygon stroke="null" id="svg_26" points="1518.6161499023438,372.28663635253906 1720.8693237304688,372.28663635253906 1720.8693237304688,311.0265655517578 1587.4091186523438,311.0265655517578 1587.4091186523438,222.57847213745117 1708.7702026367188,222.57847213745117 1708.7702026367188,165.76863956451416 1587.4091186523438,165.76863956451416 1587.4091186523438,87.68121337890625 1720.8693237304688,87.68121337890625 1720.8693237304688,26.467529296875 1518.6161499023438,26.467529296875 " class="fil0"/>
   <polygon stroke="null" id="svg_27" points="1911.9506225585938,183.08280873298645 2045.2251586914062,26.467529296875 1971.4722290039062,26.467529296875 1847.7006225585938,174.1359887123108 1847.7006225585938,26.467529296875 1778.9075317382812,26.467529296875 1778.9075317382812,372.28663635253906 1847.7006225585938,372.28663635253906 1847.7006225585938,200.32737922668457 1974.9490356445312,372.28663635253906 2058.0195922851562,372.28663635253906 " class="fil0"/>
   <path stroke="null" id="svg_28" d="m1247.694305,87.687906l63.408395,0l0,284.605204l68.740592,0l0,-284.605204l97.670403,0l0,-61.228287l-268.951742,0c19.403092,17.361279 32.020581,38.79966 39.133656,61.228287l-0.001305,0z" class="fil0"/>
   <path stroke="null" id="svg_29" d="m1120.95449,523.903899l0,46.88863l-0.48012,12.301758l-0.185264,3.84748l40.104332,-63.037868l13.976958,0l0,73.959283l-10.469998,0l0,-45.202993l0.206138,-8.914828l0.345738,-8.780447l-40.058669,62.899573l-13.982177,0l0,-73.959283l10.54306,0l0,-0.001305zm91.32839,30.691119c14.031754,0 21.023495,-3.870964 21.023495,-11.614196c0,-7.278769 -5.67924,-10.92011 -17.031197,-10.92011c-3.461297,0 -6.623823,0.323559 -9.460181,0.948497c-2.836358,0.621024 -6.550761,1.889166 -11.167998,3.775723l-3.992298,-9.122271c7.662342,-3.433898 16.038341,-5.137801 25.105816,-5.137801c8.515598,0 15.228139,1.749566 20.141536,5.227823c4.918616,3.503046 7.364877,8.25075 7.364877,14.283556c0,8.295109 -4.617236,13.708195 -13.86867,16.290143l0,0.529697c5.700115,1.659544 9.828099,4.032743 12.458319,7.122208c2.608041,3.084246 3.924455,6.956515 3.924455,11.586798c0,6.843008 -2.764601,12.166072 -8.280757,15.969193c-5.53964,3.799207 -13.156319,5.710552 -22.894396,5.710552c-10.68266,0 -18.941237,-1.587787 -24.754859,-4.788149l0,-10.278211c8.254664,3.870964 16.586303,5.804489 25.011879,5.804489c6.505098,0 11.39762,-1.106362 14.719317,-3.339962c3.299517,-2.234904 4.962975,-5.435266 4.962975,-9.629789c0,-8.591269 -7.017834,-12.877119 -21.018276,-12.877119l-10.296476,0l0,-9.539766l8.05244,0l0,-0.001305zm116.666437,6.221984c0,12.072136 -3.042497,21.495786 -9.113138,28.270951c-6.091517,6.772556 -14.489694,10.156877 -25.221932,10.156877c-6.622518,0 -12.507897,-1.542123 -17.647002,-4.653767c-5.126059,-3.105121 -9.094873,-7.580148 -11.882958,-13.383332c-2.819398,-5.804489 -4.203655,-12.603138 -4.203655,-20.389424c0,-12.072136 3.020317,-21.472302 9.067475,-28.203109c6.021064,-6.726892 14.423156,-10.089034 25.127995,-10.089034c10.38128,0 18.599413,3.429984 24.714414,10.32257c6.115001,6.888672 9.157497,16.217081 9.157497,27.969572l0.001305,-0.001305zm-56.437529,0c0,9.44583 1.89308,16.65806 5.674021,21.613207c3.784855,4.949928 9.346675,7.418369 16.707638,7.418369c7.337479,0 12.921478,-2.468441 16.729817,-7.396189c3.803121,-4.932967 5.696201,-12.143893 5.696201,-21.635386c0,-9.400166 -1.89308,-16.545858 -5.696201,-21.427943c-3.808339,-4.882085 -9.436697,-7.328346 -16.869417,-7.328346c-7.360963,0 -12.899298,2.396684 -16.635881,7.210926c-3.735278,4.815547 -5.606178,12.005598 -5.606178,21.545364zm72.264513,-7.283987c0,-16.194902 2.378418,-28.820219 7.157434,-37.896826c4.775102,-9.076608 12.346117,-14.724535 22.705218,-16.981619c12.877119,-2.742422 24.223857,-4.977326 34.058479,-6.681229l2.099218,9.859411c-15.645634,2.604127 -26.813632,4.675947 -33.526173,6.199804c-6.528582,1.497764 -11.425018,4.999506 -14.702356,10.524794c-3.24994,5.530507 -5.052997,13.088476 -5.350463,22.629547l0.810202,0c2.790695,-3.803121 6.388982,-6.77647 10.794861,-8.914828c4.431973,-2.168366 9.045295,-3.251244 13.869975,-3.251244c9.089654,0 16.193597,2.949865 21.273992,8.84829c5.098661,5.898425 7.640163,14.076113 7.640163,24.51219c0,11.568532 -2.953779,20.600781 -8.861337,27.096746c-5.885378,6.519449 -14.121777,9.765475 -24.66875,9.765475c-10.404764,0 -18.549836,-3.983166 -24.458698,-11.954715c-5.907558,-7.948066 -8.837852,-19.216523 -8.837852,-33.7571l-0.003914,0.001305zm34.318109,36.314258c13.74864,0 20.604695,-8.758267 20.604695,-26.24349c0,-16.702419 -6.236335,-25.041887 -18.715529,-25.041887c-3.416938,0 -6.713845,0.709742 -9.899856,2.117484c-3.161222,1.429921 -6.065423,3.295603 -8.699557,5.642709c-2.652399,2.330145 -4.679861,4.747704 -6.115001,7.21223c0,11.842514 1.874815,20.852583 5.611397,27.030208c3.735278,6.19589 9.481056,9.284051 17.215156,9.284051l-0.001305,-0.001305zm86.548069,9.396252c-4.823375,0 -9.229254,-0.895005 -13.221553,-2.66936c-3.970119,-1.776964 -7.337479,-4.514167 -10.035542,-8.201172l-0.808897,0c0.531002,4.308029 0.808897,8.407311 0.808897,12.279579l0,30.388435l-11.217575,0l0,-107.135803l9.113138,0l1.57474,10.092948l0.529697,0c2.882022,-4.054923 6.250687,-6.982608 10.081206,-8.780447c3.834433,-1.793925 8.212914,-2.69154 13.177194,-2.69154c9.828099,0 17.418684,3.362141 22.773061,10.065549c5.332197,6.708627 8.006776,16.104879 8.006776,28.226593c0,12.167377 -2.718938,21.613207 -8.146376,28.338794c-5.444399,6.726892 -12.967141,10.089034 -22.633461,10.089034l-0.001305,-0.002609zm-1.61388,-67.182813c-7.567101,0 -13.061078,2.099218 -16.428438,6.267647c-3.394758,4.194523 -5.126059,10.853572 -5.216081,19.998022l0,2.49062c0,10.390413 1.727387,17.832266 5.216081,22.300769c3.461297,4.495902 9.045295,6.730806 16.702419,6.730806c6.394201,0 11.425018,-2.581947 15.04418,-7.765412c3.623076,-5.183464 5.448313,-12.305672 5.448313,-21.405764c0,-9.216208 -1.825237,-16.288838 -5.448313,-21.220501c-3.619162,-4.927749 -8.745221,-7.396189 -15.318161,-7.396189zm83.274645,67.182813c-10.96186,0 -19.593574,-3.339962 -25.914713,-9.999011c-6.344623,-6.659049 -9.50454,-15.919616 -9.50454,-27.763434c0,-11.932536 2.931599,-21.400545 8.816978,-28.428817c5.88016,-7.026967 13.774734,-10.528708 23.69416,-10.528708c9.274918,0 16.639795,3.038583 22.034616,9.144451c5.40004,6.105868 8.124197,14.14787 8.124197,24.124702l0,7.09481l-51.038794,0c0.229622,8.68651 2.424082,15.277717 6.574245,19.791884c4.180171,4.490683 10.039456,6.747767 17.628737,6.747767c7.962417,0 15.853077,-1.659544 23.65502,-4.999506l0,9.999011c-3.966205,1.731301 -7.734099,2.949865 -11.263239,3.709184c-3.529139,0.73714 -7.796724,1.106362 -12.805362,1.106362l-0.001305,0.001305zm-3.042497,-67.318499c-5.953221,0 -10.687878,1.933525 -14.217018,5.804489c-3.551319,3.848784 -5.628358,9.194028 -6.253296,16.037036l38.720075,0c0,-7.049146 -1.565607,-12.467452 -4.730743,-16.220995c-3.159917,-3.753543 -7.661038,-5.62053 -13.517713,-5.62053l-0.001305,0zm99.401704,1.519944l-24.089476,0l0,64.419516l-11.217575,0l0,-64.419516l-23.810276,0l0,-9.539766l59.118631,0l0,9.539766l-0.001305,0zm60.20151,64.419516l-2.234904,-10.530013l-0.557095,0c-3.690919,4.630283 -7.360963,7.787591 -11.029703,9.44583c-3.690919,1.637364 -8.258578,2.464527 -13.752554,2.464527c-7.355744,0 -13.101523,-1.889166 -17.282998,-5.664889c-4.148859,-3.803121 -6.254601,-9.171849 -6.254601,-16.176636c0,-14.948939 11.9782,-22.786108 35.882412,-23.501068l12.57574,-0.413581l0,-4.585924c0,-5.782309 -1.244658,-10.066854 -3.735278,-12.83276c-2.518018,-2.764601 -6.510316,-4.144945 -12.000379,-4.144945c-6.186758,0 -13.1511,1.889166 -20.950433,5.664889l-3.439117,-8.56909c3.645255,-1.983102 7.638858,-3.5461 11.976895,-4.674642c4.356302,-1.129847 8.721737,-1.681723 13.079343,-1.681723c8.839157,0 15.371653,1.955704 19.639237,5.871027c4.26628,3.920541 6.392896,10.18297 6.392896,18.823817l0,50.503878l-8.308155,0l-0.001305,0.001305zm-25.357617,-7.882832c6.991741,0 12.487022,-1.911345 16.451922,-5.736646c3.992298,-3.821386 5.99758,-9.16663 5.99758,-16.055302l0,-6.681229l-11.230622,0.481424c-8.907,0.301379 -15.349474,1.681723 -19.292194,4.148859c-3.947939,2.442347 -5.907558,6.263733 -5.907558,11.425018c0,4.054923 1.222478,7.144387 3.689614,9.238387c2.447566,2.122702 5.881464,3.178183 10.291258,3.178183l0,0.001305zm60.522459,7.882832l-13.128921,0l21.297476,-31.265175c-5.723599,-1.268142 -10.107299,-3.709184 -13.156319,-7.329651c-3.020317,-3.613943 -4.540261,-8.154204 -4.540261,-13.657313c0,-6.730806 2.260998,-12.027777 6.806477,-15.898741c4.567659,-3.870964 10.912282,-5.808403 19.058658,-5.808403l32.996476,0l0,73.959283l-11.235841,0l0,-29.583452l-18.711615,0l-19.386131,29.583452zm1.411656,-52.117758c0,8.573004 6.227203,12.858854 18.639858,12.858854l18.047537,0l0,-25.019707l-20.330714,0c-10.916196,0 -16.356681,4.054923 -16.356681,12.162158l0,-0.001305zm103.853247,7.787591c0,-16.194902 2.378418,-28.820219 7.157434,-37.896826c4.775102,-9.076608 12.346117,-14.724535 22.705218,-16.981619c12.877119,-2.742422 24.223857,-4.977326 34.058479,-6.681229l2.099218,9.859411c-15.645634,2.604127 -26.813632,4.675947 -33.526173,6.199804c-6.528582,1.497764 -11.425018,4.999506 -14.702356,10.524794c-3.24994,5.530507 -5.049083,13.088476 -5.350463,22.629547l0.810202,0c2.790695,-3.803121 6.388982,-6.77647 10.794861,-8.914828c4.433278,-2.168366 9.045295,-3.251244 13.869975,-3.251244c9.089654,0 16.193597,2.949865 21.275297,8.84829c5.097356,5.898425 7.638858,14.076113 7.638858,24.51219c0,11.568532 -2.953779,20.600781 -8.861337,27.096746c-5.885378,6.519449 -14.121777,9.765475 -24.66875,9.765475c-10.404764,0 -18.549836,-3.983166 -24.458698,-11.954715c-5.907558,-7.948066 -8.837852,-19.216523 -8.837852,-33.7571l-0.003914,0.001305zm34.318109,36.314258c13.74864,0 20.604695,-8.758267 20.604695,-26.24349c0,-16.702419 -6.231117,-25.041887 -18.715529,-25.041887c-3.416938,0 -6.712541,0.709742 -9.899856,2.117484c-3.161222,1.429921 -6.065423,3.295603 -8.699557,5.642709c-2.652399,2.330145 -4.679861,4.747704 -6.115001,7.21223c0,11.842514 1.874815,20.852583 5.611397,27.030208c3.735278,6.19589 9.481056,9.284051 17.215156,9.284051l-0.001305,-0.001305zm40.306557,-65.943374l12.022558,0l16.244479,42.163106c3.551319,9.629789 5.767958,16.590217 6.622518,20.852583l0.531002,0c0.59754,-2.306661 1.825237,-6.223289 3.690919,-11.774671c1.870901,-5.552687 7.983292,-22.624328 18.365877,-51.241018l12.027777,0l-31.845755,84.187916c-3.159917,8.339468 -6.829961,14.237893 -11.055796,17.718759c-4.216702,3.479562 -9.38712,5.229128 -15.5243,5.229128c-3.416938,0 -6.807782,-0.391402 -10.129478,-1.128542l0,-8.938312c2.464527,0.531002 5.233042,0.804983 8.304241,0.804983c7.706701,0 13.221553,-4.328904 16.500195,-12.948876l4.12668,-10.552192l-29.879613,-74.372864l-0.001305,0zm143.130417,99.532171l-10.894017,0l0,-25.572888l-51.803332,0l0,25.572888l-10.817041,0l0,-35.248341l5.809707,0c6.051072,-8.177688 10.776596,-17.786602 14.215713,-28.801953c3.411719,-11.010132 5.192597,-22.853951 5.332197,-35.481877l37.541955,0l0,64.28383l10.614817,0l0,35.248341zm-21.437076,-35.248341l0,-55.436845l-16.639795,0c-0.598845,9.976832 -2.51019,20.093263 -5.791442,30.321897c-3.277338,10.227329 -7.337479,18.59028 -12.206517,25.113644l34.636449,0l0.001305,0.001305zm24.457393,-64.28383l12.022558,0l16.244479,42.163106c3.551319,9.629789 5.769262,16.590217 6.622518,20.852583l0.531002,0c0.598845,-2.306661 1.826542,-6.223289 3.690919,-11.774671c1.870901,-5.552687 7.984597,-22.624328 18.367181,-51.241018l12.022558,0l-31.840536,84.187916c-3.159917,8.339468 -6.83518,14.237893 -11.055796,17.718759c-4.216702,3.479562 -9.38712,5.229128 -15.5243,5.229128c-3.416938,0 -6.807782,-0.391402 -10.134697,-1.128542l0,-8.938312c2.468441,0.531002 5.238261,0.804983 8.308155,0.804983c7.706701,0 13.221553,-4.328904 16.500195,-12.948876l4.127984,-10.552192l-29.880918,-74.372864l-0.001305,0zm136.737521,64.28383l32.856876,0l0,-64.14423l11.239755,0l0,64.14423l10.588723,0l0,35.108741l-11.353261,0l0,-25.433288l-98.551057,0l0,-73.819683l11.217575,0l0,64.14423l32.789033,0l0,-64.14423l11.213661,0l0,64.14423l-0.001305,0zm100.256264,11.055796c-10.956641,0 -19.588355,-3.339962 -25.910799,-9.999011c-6.343318,-6.659049 -9.50454,-15.919616 -9.50454,-27.763434c0,-11.932536 2.931599,-21.400545 8.816978,-28.428817c5.876246,-7.026967 13.77082,-10.528708 23.690246,-10.528708c9.278832,0 16.639795,3.038583 22.039835,9.144451c5.398735,6.105868 8.122892,14.14787 8.122892,24.124702l0,7.09481l-51.042708,0c0.233536,8.68651 2.424082,15.277717 6.578159,19.791884c4.176257,4.490683 10.035542,6.747767 17.630041,6.747767c7.957198,0 15.851773,-1.659544 23.648496,-4.999506l0,9.999011c-3.9649,1.731301 -7.728881,2.949865 -11.25802,3.709184c-3.529139,0.73714 -7.800638,1.106362 -12.809276,1.106362l-0.001305,0.001305zm-3.043801,-67.318499c-5.951917,0 -10.68266,1.933525 -14.210494,5.804489c-3.556538,3.848784 -5.629662,9.194028 -6.254601,16.037036l38.720075,0c0,-7.049146 -1.569521,-12.467452 -4.729438,-16.220995c-3.159917,-3.753543 -7.666256,-5.62053 -13.524237,-5.62053l-0.001305,0zm80.713573,67.318499c-10.956641,0 -19.58966,-3.339962 -25.910799,-9.999011c-6.344623,-6.659049 -9.50454,-15.919616 -9.50454,-27.763434c0,-11.932536 2.931599,-21.400545 8.811759,-28.428817c5.881464,-7.026967 13.776038,-10.528708 23.695465,-10.528708c9.278832,0 16.639795,3.038583 22.03853,9.144451c5.40004,6.105868 8.124197,14.14787 8.124197,24.124702l0,7.09481l-51.042708,0c0.233536,8.68651 2.424082,15.277717 6.578159,19.791884c4.176257,4.490683 10.034237,6.747767 17.628737,6.747767c7.957198,0 15.853077,-1.659544 23.649801,-4.999506l0,9.999011c-3.9649,1.731301 -7.728881,2.949865 -11.25802,3.709184c-3.533054,0.73714 -7.800638,1.106362 -12.809276,1.106362l-0.001305,0.001305zm-3.043801,-67.318499c-5.953221,0 -10.68266,1.933525 -14.211799,5.804489c-3.555233,3.848784 -5.628358,9.194028 -6.253296,16.037036l38.714856,0c0,-7.049146 -1.564302,-12.467452 -4.72422,-16.220995c-3.161222,-3.753543 -7.667561,-5.62053 -13.524237,-5.62053l-0.001305,0z" class="fil2 str0"/>
   <path stroke="null" id="svg_30" d="m2168.302633,88.34807l9.281441,0c4.567659,0 8.227266,-1.171596 11.010132,-3.543491c2.780257,-2.374504 4.156687,-5.390907 4.156687,-9.051819c0,-4.306724 -1.229002,-7.35444 -3.68831,-9.22795c-2.461917,-1.846112 -6.35506,-2.782867 -11.654641,-2.782867l-9.10531,0l0,24.607431l0,-0.001305zm37.24449,-12.947571c0,4.570268 -1.230306,8.612144 -3.659607,12.128237c-2.430605,3.514788 -5.856675,6.152836 -10.248204,7.85152l20.408994,33.924098l-14.406195,0l-17.744853,-30.408005l-11.594626,0l0,30.408005l-12.678809,0l0,-76.459036l22.369917,0c9.486275,0 16.457141,1.846112 20.877372,5.565733c4.450238,3.719622 6.67601,9.374073 6.67601,16.990752l0,-0.001305zm-90.681272,15.614322c0,-11.425018 2.868975,-22.146818 8.578223,-32.165399c5.710552,-10.018581 13.585556,-17.928811 23.600223,-23.700683c9.98466,-5.770567 20.788654,-8.670854 32.325874,-8.670854c11.449807,0 22.166388,2.87028 32.179751,8.583441c9.98466,5.711857 17.890976,13.59208 23.658934,23.611965c5.767958,10.018581 8.66694,20.799091 8.66694,32.34153c0,11.278895 -2.781562,21.883274 -8.315983,31.784435c-5.563124,9.901161 -13.322012,17.811391 -23.33668,23.759393c-10.013363,5.946698 -20.964785,8.934398 -32.852962,8.934398c-11.829467,0 -22.750882,-2.958998 -32.765549,-8.876993c-10.013363,-5.91669 -17.802258,-13.855623 -23.365382,-23.729386c-5.593132,-9.901161 -8.373389,-20.534243 -8.373389,-31.871848zm9.017897,0c0,9.901161 2.489315,19.157813 7.437939,27.771262c4.977326,8.612144 11.770757,15.409489 20.377682,20.359417c8.60823,4.951233 17.83357,7.41315 27.670802,7.41315c9.954652,0 19.178688,-2.491925 27.699505,-7.47186c8.520817,-4.979935 15.28424,-11.717265 20.291574,-20.211989c5.007334,-8.496028 7.496649,-17.782688 7.496649,-27.85998c0,-9.931168 -2.489315,-19.187821 -7.437939,-27.712552c-4.977326,-8.524731 -11.712046,-15.292068 -20.202856,-20.302011c-8.49081,-5.008638 -17.77486,-7.499258 -27.846933,-7.499258c-9.954652,0 -19.178688,2.49062 -27.699505,7.470556c-8.519512,4.979935 -15.28424,11.71857 -20.290269,20.213293c-5.007334,8.494724 -7.496649,17.781383 -7.496649,27.829972z" class="fil3 str1"/>
  </g>
 </g>
</svg>