<svg id="visual" viewBox="0 0 900 600" width="900" height="600" xmlns="http://www.w3.org/2000/svg" xmlns:xlink="http://www.w3.org/1999/xlink" version="1.1"><path d="M0 31L7.8 34C15.7 37 31.3 43 47.2 41C63 39 79 29 94.8 27C110.7 25 126.3 31 142 36C157.7 41 173.3 45 189.2 42C205 39 221 29 236.8 30C252.7 31 268.3 43 284.2 45C300 47 316 39 331.8 32C347.7 25 363.3 19 379 20C394.7 21 410.3 29 426.2 33C442 37 458 37 473.8 36C489.7 35 505.3 33 521 35C536.7 37 552.3 43 568.2 42C584 41 600 33 615.8 33C631.7 33 647.3 41 663.2 44C679 47 695 45 710.8 44C726.7 43 742.3 43 758 43C773.7 43 789.3 43 805.2 38C821 33 837 23 852.8 19C868.7 15 884.3 17 892.2 18L900 19L900 0L892.2 0C884.3 0 868.7 0 852.8 0C837 0 821 0 805.2 0C789.3 0 773.7 0 758 0C742.3 0 726.7 0 710.8 0C695 0 679 0 663.2 0C647.3 0 631.7 0 615.8 0C600 0 584 0 568.2 0C552.3 0 536.7 0 521 0C505.3 0 489.7 0 473.8 0C458 0 442 0 426.2 0C410.3 0 394.7 0 379 0C363.3 0 347.7 0 331.8 0C316 0 300 0 284.2 0C268.3 0 252.7 0 236.8 0C221 0 205 0 189.2 0C173.3 0 157.7 0 142 0C126.3 0 110.7 0 94.8 0C79 0 63 0 47.2 0C31.3 0 15.7 0 7.8 0L0 0Z" fill="#ffffff"></path><path d="M0 85L7.8 97C15.7 109 31.3 133 47.2 135C63 137 79 117 94.8 115C110.7 113 126.3 129 142 126C157.7 123 173.3 101 189.2 105C205 109 221 139 236.8 140C252.7 141 268.3 113 284.2 109C300 105 316 125 331.8 139C347.7 153 363.3 161 379 153C394.7 145 410.3 121 426.2 109C442 97 458 97 473.8 92C489.7 87 505.3 77 521 88C536.7 99 552.3 131 568.2 133C584 135 600 107 615.8 95C631.7 83 647.3 87 663.2 89C679 91 695 91 710.8 100C726.7 109 742.3 127 758 126C773.7 125 789.3 105 805.2 98C821 91 837 97 852.8 104C868.7 111 884.3 119 892.2 123L900 127L900 17L892.2 16C884.3 15 868.7 13 852.8 17C837 21 821 31 805.2 36C789.3 41 773.7 41 758 41C742.3 41 726.7 41 710.8 42C695 43 679 45 663.2 42C647.3 39 631.7 31 615.8 31C600 31 584 39 568.2 40C552.3 41 536.7 35 521 33C505.3 31 489.7 33 473.8 34C458 35 442 35 426.2 31C410.3 27 394.7 19 379 18C363.3 17 347.7 23 331.8 30C316 37 300 45 284.2 43C268.3 41 252.7 29 236.8 28C221 27 205 37 189.2 40C173.3 43 157.7 39 142 34C126.3 29 110.7 23 94.8 25C79 27 63 37 47.2 39C31.3 41 15.7 35 7.8 32L0 29Z" fill="#eef6ff"></path><path d="M0 121L7.8 136C15.7 151 31.3 181 47.2 184C63 187 79 163 94.8 161C110.7 159 126.3 179 142 181C157.7 183 173.3 167 189.2 173C205 179 221 207 236.8 206C252.7 205 268.3 175 284.2 171C300 167 316 189 331.8 201C347.7 213 363.3 215 379 202C394.7 189 410.3 161 426.2 154C442 147 458 161 473.8 154C489.7 147 505.3 119 521 128C536.7 137 552.3 183 568.2 186C584 189 600 149 615.8 138C631.7 127 647.3 145 663.2 153C679 161 695 159 710.8 167C726.7 175 742.3 193 758 189C773.7 185 789.3 159 805.2 154C821 149 837 165 852.8 179C868.7 193 884.3 205 892.2 211L900 217L900 125L892.2 121C884.3 117 868.7 109 852.8 102C837 95 821 89 805.2 96C789.3 103 773.7 123 758 124C742.3 125 726.7 107 710.8 98C695 89 679 89 663.2 87C647.3 85 631.7 81 615.8 93C600 105 584 133 568.2 131C552.3 129 536.7 97 521 86C505.3 75 489.7 85 473.8 90C458 95 442 95 426.2 107C410.3 119 394.7 143 379 151C363.3 159 347.7 151 331.8 137C316 123 300 103 284.2 107C268.3 111 252.7 139 236.8 138C221 137 205 107 189.2 103C173.3 99 157.7 121 142 124C126.3 127 110.7 111 94.8 113C79 115 63 135 47.2 133C31.3 131 15.7 107 7.8 95L0 83Z" fill="#ddecff"></path><path d="M0 169L7.8 180C15.7 191 31.3 213 47.2 216C63 219 79 203 94.8 202C110.7 201 126.3 215 142 215C157.7 215 173.3 201 189.2 210C205 219 221 251 236.8 252C252.7 253 268.3 223 284.2 216C300 209 316 225 331.8 231C347.7 237 363.3 233 379 224C394.7 215 410.3 201 426.2 200C442 199 458 211 473.8 202C489.7 193 505.3 163 521 170C536.7 177 552.3 221 568.2 225C584 229 600 193 615.8 181C631.7 169 647.3 181 663.2 187C679 193 695 193 710.8 203C726.7 213 742.3 233 758 226C773.7 219 789.3 185 805.2 176C821 167 837 183 852.8 197C868.7 211 884.3 223 892.2 229L900 235L900 215L892.2 209C884.3 203 868.7 191 852.8 177C837 163 821 147 805.2 152C789.3 157 773.7 183 758 187C742.3 191 726.7 173 710.8 165C695 157 679 159 663.2 151C647.3 143 631.7 125 615.8 136C600 147 584 187 568.2 184C552.3 181 536.7 135 521 126C505.3 117 489.7 145 473.8 152C458 159 442 145 426.2 152C410.3 159 394.7 187 379 200C363.3 213 347.7 211 331.8 199C316 187 300 165 284.2 169C268.3 173 252.7 203 236.8 204C221 205 205 177 189.2 171C173.3 165 157.7 181 142 179C126.3 177 110.7 157 94.8 159C79 161 63 185 47.2 182C31.3 179 15.7 149 7.8 134L0 119Z" fill="#cbe3ff"></path><path d="M0 247L7.8 265C15.7 283 31.3 319 47.2 333C63 347 79 339 94.8 333C110.7 327 126.3 323 142 324C157.7 325 173.3 331 189.2 349C205 367 221 397 236.8 387C252.7 377 268.3 327 284.2 307C300 287 316 297 331.8 321C347.7 345 363.3 383 379 375C394.7 367 410.3 313 426.2 300C442 287 458 315 473.8 322C489.7 329 505.3 315 521 324C536.7 333 552.3 365 568.2 363C584 361 600 325 615.8 324C631.7 323 647.3 357 663.2 362C679 367 695 343 710.8 333C726.7 323 742.3 327 758 322C773.7 317 789.3 303 805.2 301C821 299 837 309 852.8 313C868.7 317 884.3 315 892.2 314L900 313L900 233L892.2 227C884.3 221 868.7 209 852.8 195C837 181 821 165 805.2 174C789.3 183 773.7 217 758 224C742.3 231 726.7 211 710.8 201C695 191 679 191 663.2 185C647.3 179 631.7 167 615.8 179C600 191 584 227 568.2 223C552.3 219 536.7 175 521 168C505.3 161 489.7 191 473.8 200C458 209 442 197 426.2 198C410.3 199 394.7 213 379 222C363.3 231 347.7 235 331.8 229C316 223 300 207 284.2 214C268.3 221 252.7 251 236.8 250C221 249 205 217 189.2 208C173.3 199 157.7 213 142 213C126.3 213 110.7 199 94.8 200C79 201 63 217 47.2 214C31.3 211 15.7 189 7.8 178L0 167Z" fill="#b8daff"></path><path d="M0 307L7.8 322C15.7 337 31.3 367 47.2 374C63 381 79 365 94.8 354C110.7 343 126.3 337 142 340C157.7 343 173.3 355 189.2 373C205 391 221 415 236.8 408C252.7 401 268.3 363 284.2 345C300 327 316 329 331.8 349C347.7 369 363.3 407 379 402C394.7 397 410.3 349 426.2 338C442 327 458 353 473.8 359C489.7 365 505.3 351 521 360C536.7 369 552.3 401 568.2 395C584 389 600 345 615.8 340C631.7 335 647.3 369 663.2 374C679 379 695 355 710.8 345C726.7 335 742.3 339 758 342C773.7 345 789.3 347 805.2 352C821 357 837 365 852.8 370C868.7 375 884.3 377 892.2 378L900 379L900 311L892.2 312C884.3 313 868.7 315 852.8 311C837 307 821 297 805.2 299C789.3 301 773.7 315 758 320C742.3 325 726.7 321 710.8 331C695 341 679 365 663.2 360C647.3 355 631.7 321 615.8 322C600 323 584 359 568.2 361C552.3 363 536.7 331 521 322C505.3 313 489.7 327 473.8 320C458 313 442 285 426.2 298C410.3 311 394.7 365 379 373C363.3 381 347.7 343 331.8 319C316 295 300 285 284.2 305C268.3 325 252.7 375 236.8 385C221 395 205 365 189.2 347C173.3 329 157.7 323 142 322C126.3 321 110.7 325 94.8 331C79 337 63 345 47.2 331C31.3 317 15.7 281 7.8 263L0 245Z" fill="#a4d1ff"></path><path d="M0 481L7.8 483C15.7 485 31.3 489 47.2 488C63 487 79 481 94.8 477C110.7 473 126.3 471 142 476C157.7 481 173.3 493 189.2 506C205 519 221 533 236.8 534C252.7 535 268.3 523 284.2 512C300 501 316 491 331.8 493C347.7 495 363.3 509 379 506C394.7 503 410.3 483 426.2 479C442 475 458 487 473.8 489C489.7 491 505.3 483 521 483C536.7 483 552.3 491 568.2 500C584 509 600 519 615.8 517C631.7 515 647.3 501 663.2 494C679 487 695 487 710.8 485C726.7 483 742.3 479 758 479C773.7 479 789.3 483 805.2 490C821 497 837 507 852.8 513C868.7 519 884.3 521 892.2 522L900 523L900 377L892.2 376C884.3 375 868.7 373 852.8 368C837 363 821 355 805.2 350C789.3 345 773.7 343 758 340C742.3 337 726.7 333 710.8 343C695 353 679 377 663.2 372C647.3 367 631.7 333 615.8 338C600 343 584 387 568.2 393C552.3 399 536.7 367 521 358C505.3 349 489.7 363 473.8 357C458 351 442 325 426.2 336C410.3 347 394.7 395 379 400C363.3 405 347.7 367 331.8 347C316 327 300 325 284.2 343C268.3 361 252.7 399 236.8 406C221 413 205 389 189.2 371C173.3 353 157.7 341 142 338C126.3 335 110.7 341 94.8 352C79 363 63 379 47.2 372C31.3 365 15.7 335 7.8 320L0 305Z" fill="#8ec8ff"></path><path d="M0 505L7.8 509C15.7 513 31.3 521 47.2 524C63 527 79 525 94.8 522C110.7 519 126.3 515 142 520C157.7 525 173.3 539 189.2 548C205 557 221 561 236.8 560C252.7 559 268.3 553 284.2 544C300 535 316 523 331.8 523C347.7 523 363.3 535 379 537C394.7 539 410.3 531 426.2 532C442 533 458 543 473.8 547C489.7 551 505.3 549 521 543C536.7 537 552.3 527 568.2 528C584 529 600 541 615.8 543C631.7 545 647.3 537 663.2 529C679 521 695 513 710.8 511C726.7 509 742.3 513 758 515C773.7 517 789.3 517 805.2 526C821 535 837 553 852.8 557C868.7 561 884.3 551 892.2 546L900 541L900 521L892.2 520C884.3 519 868.7 517 852.8 511C837 505 821 495 805.2 488C789.3 481 773.7 477 758 477C742.3 477 726.7 481 710.8 483C695 485 679 485 663.2 492C647.3 499 631.7 513 615.8 515C600 517 584 507 568.2 498C552.3 489 536.7 481 521 481C505.3 481 489.7 489 473.8 487C458 485 442 473 426.2 477C410.3 481 394.7 501 379 504C363.3 507 347.7 493 331.8 491C316 489 300 499 284.2 510C268.3 521 252.7 533 236.8 532C221 531 205 517 189.2 504C173.3 491 157.7 479 142 474C126.3 469 110.7 471 94.8 475C79 479 63 485 47.2 486C31.3 487 15.7 483 7.8 481L0 479Z" fill="#76bfff"></path><path d="M0 601L7.8 601C15.7 601 31.3 601 47.2 601C63 601 79 601 94.8 601C110.7 601 126.3 601 142 601C157.7 601 173.3 601 189.2 601C205 601 221 601 236.8 601C252.7 601 268.3 601 284.2 601C300 601 316 601 331.8 601C347.7 601 363.3 601 379 601C394.7 601 410.3 601 426.2 601C442 601 458 601 473.8 601C489.7 601 505.3 601 521 601C536.7 601 552.3 601 568.2 601C584 601 600 601 615.8 601C631.7 601 647.3 601 663.2 601C679 601 695 601 710.8 601C726.7 601 742.3 601 758 601C773.7 601 789.3 601 805.2 601C821 601 837 601 852.8 601C868.7 601 884.3 601 892.2 601L900 601L900 539L892.2 544C884.3 549 868.7 559 852.8 555C837 551 821 533 805.2 524C789.3 515 773.7 515 758 513C742.3 511 726.7 507 710.8 509C695 511 679 519 663.2 527C647.3 535 631.7 543 615.8 541C600 539 584 527 568.2 526C552.3 525 536.7 535 521 541C505.3 547 489.7 549 473.8 545C458 541 442 531 426.2 530C410.3 529 394.7 537 379 535C363.3 533 347.7 521 331.8 521C316 521 300 533 284.2 542C268.3 551 252.7 557 236.8 558C221 559 205 555 189.2 546C173.3 537 157.7 523 142 518C126.3 513 110.7 517 94.8 520C79 523 63 525 47.2 522C31.3 519 15.7 511 7.8 507L0 503Z" fill="#59b6ff"></path></svg>